<svg xmlns="http://www.w3.org/2000/svg"  viewBox="0 0 91 91" width="91px" height="91px"><path fill="#fff" d="M24.5,19.3c-2.5,1.3-4.8,3-6.2,5.5c-2.4,4.1-1.6,9.3,0,13.8s4.2,8.6,5.2,13.2c0.9,4.1,0.7,8.4,2,12.4 c0.4,1.4,1.3,2.9,2.7,3c1.3,0.1,2.4-0.9,3.2-1.9c3.6-4.6,5.3-10.9,10.1-14.3c1-0.7,2.1-1.3,3.4-1.4c4.2-0.3,6.7,4.7,10.4,6.7 c0.8,0.4,1.7,0.7,2.6,0.6c1.5-0.2,2.5-1.5,3.3-2.8c5.3-8.6,5.9-19.8,1.6-28.9c-3.5-7.4-8-7.1-15-7.3c-3.8-0.1-7.4-1.6-11.3-1.6 C32.4,16.3,28.2,17.3,24.5,19.3z"/><path fill="#f5f2e8" d="M30.8,58.7c1.3-0.6,2.1-1.9,2.8-3.1c1.4-2.5,2.9-5,4.3-7.5c1.7-3,4.3-6.4,7.7-5.8c2.6,0.5,4.1,3.1,5.8,5.1 c1.7,2,5,3.5,6.8,1.6c0.9-1,1-2.4,1-3.8c0-5.4-1-11-3.7-15.7s-7.5-8.5-13-9.1c-1.1-1.8,1.4-3.6,3.4-4.2c7.1-2.2,15.1-4.3,21.7-0.9 c5.6,2.9,8.8,9.2,9.2,15.5c0.5,6.2-1.3,12.4-3.4,18.3s-3.1,11.7-4.1,17.9c-0.5,3.1-0.6,6.2-1.4,9.2c-0.8,3-3.9,6-6.6,7.5 c-1.4,0.8-3.2,1.1-4.7,0.6c-2.8-1-4-4.3-4.7-7.1c-1.1-4-2.1-8.1-3.2-12.1c-0.6-2.1-1.6-4.6-3.8-4.9c-1.8-0.2-1.9,1.5-2.3,3.3 s-1.9,9.6-2.7,11.2c-2.1,4.9-3.4,7.1-5.4,7.2c-1.2,0.1-2.5,0.1-3.6-0.4c-1.7-0.8-2.5-2.6-2.9-4.4C26,69.6,28.5,59.8,30.8,58.7z"/><path fill="#3c6b76" d="M55.1,21c-8.1-5.3-18.9-9.9-28.6-6.2C18.3,18,12.4,26.8,13.3,35.6c0.5,4.7,2.8,8.8,5.2,12.8 c2.5,4.4,4,8.5,4.6,13.5c0.8,7.4,0.7,19.9,8.9,23.6c8.7,4,11.9-14.3,13.3-19.5c0.6-2.1,1.2-4.2,1.8-6.4c0.2-0.7,0.2-2,0.7-2.6 c-0.9,1.3-0.4,0-0.1,1c0.2,0.5,0.8,1.1,1.1,1.6c2,3.7,2.1,8.5,2.6,12.5c0.5,3.6,1,7.8,3.3,10.8c2.9,3.7,6.8,2.5,9.5-0.8 c6-7.3,4.4-17.6,5.9-26.3c1.9-10.4,8.7-20.2,5.4-31.1c-3.6-12.2-19.7-12-29.5-9.1c-3.9,1.1-2.2,7.3,1.7,6 c7.3-2.4,21.8-4.4,23.7,6.1c1.5,8.6-3.1,16.3-5.1,24.4c-1.8,7.6-0.4,16-3.3,23.3c-0.4,1-2.4,5.6-4,5c-0.9-0.3-1.7-3.7-1.9-4.5 c-0.9-3.3-1.2-6.8-1.8-10.2c-0.7-4.3-3.5-15.6-10.1-13.2c-3.2,1.2-4.1,5.4-5,8.3c-1,3.7-2,7.5-3.1,11.2c-0.5,1.7-1.1,3.4-1.8,5 c-0.2,0.5-0.6,1.8-1.1,2.2c-0.9,0.6,0.1,0.2,0,0.2c-0.3-0.1-0.9-1.1-1.1-1.4c-2-3-2.6-6.7-3-10.2c-0.4-3.9-0.6-7.8-1.4-11.6 c-0.8-3.8-2.4-7.2-4.3-10.6c-2.2-3.8-4.9-7.7-4.7-12.3c0.1-4.1,2.3-8.1,5.5-10.7c7.9-6.5,19.9-1.8,28,2 C55.4,25.8,57.3,22.5,55.1,21L55.1,21z"/><path fill="#69c1e0" d="M86.9,51.9c-1,0.2-3.4,0.7-4.4,0.1c-1.3-0.7-0.8-2.1-0.5-3.5c0.5-3.2,0.9-6.4,1.4-9.6 c0.8-5.4,2.2-10.5,1.2-16c-1.7-9.1-10.2-16-19.2-16.7c-5.7-0.4-11.3,1.1-17,1.5c-5.4,0.4-10.7-0.6-16-1.2c-4.7-0.5-9.6-0.8-14,1.1 c-4.2,1.8-7.5,5.3-9.8,9.3C2.6,27.5,3.9,39.2,7.9,50.2c-1.6,0.2-3.2,0.4-4.8,0.8c-2.6,0.6-1.9,4.4,0.6,4.5 c2.6,0.1,5.3-0.2,7.9-0.3c1.5-0.1,3.3-1.7,2.6-3.4c-4.1-10-8.4-21.9-3.2-32.3c2.2-4.3,5.8-8.1,10.6-9.3c4.9-1.2,10.2-0.3,15.1,0.3 c5.1,0.7,10,0.9,15.1,0.3c5.1-0.6,10.5-1.8,15.6-0.8c4.8,0.9,8.7,4,11.4,8c3.4,5.1,2.8,11,1.6,16.7c-0.6,3-0.9,6-1.5,9 c-0.5,2.6-1.6,5.3-1.5,8c0.1,5.2,6.3,5.8,10.3,5.6C91.6,57,90.9,51.1,86.9,51.9z"/></svg>